<svg width="217" height="41" viewBox="0 0 217 41" fill="none" xmlns="http://www.w3.org/2000/svg">
<g clip-path="url(#clip0_204_2635)">
<path d="M82.7241 38.0266H81.3848V29.6035H84.8386C87.1647 29.6035 88.9269 31.2599 88.9269 33.727C88.9269 36.194 87.0942 38.0619 84.7682 38.0266H82.7241ZM84.5567 36.5816C86.2131 36.5816 87.4466 35.2424 87.4466 33.7622C87.4466 32.282 86.2836 31.0837 84.6272 31.0837H82.9355V36.6169H84.5567V36.5816Z" fill="white"/>
<path d="M89.7383 35.0662C89.7383 33.3041 91.148 31.9648 93.1216 31.9648C95.1657 31.9648 96.4345 33.4098 96.4345 35.031C96.4345 35.1367 96.4345 35.4187 96.4345 35.5244H91.4652C91.4652 36.1588 92.0643 36.9694 93.2626 36.9694C94.0379 36.9694 94.5313 36.6169 94.6371 36.335H96.2935C96.1173 36.9341 95.2362 38.2029 93.4035 38.2029C91.007 38.2381 89.7383 36.7931 89.7383 35.0662ZM94.7428 34.5728C94.7428 33.7622 94.1436 33.1279 93.1568 33.1279C92.17 33.1279 91.4652 33.8327 91.4652 34.5728H94.7428Z" fill="white"/>
<path d="M104.47 31.9648C105.703 31.9648 106.655 32.6344 106.655 34.0089V38.0619H105.21V34.89C105.21 33.6917 104.857 33.1631 104.082 33.1631C103.236 33.1631 102.884 33.6917 102.884 34.89V38.0619H101.439V34.89C101.439 33.6917 101.051 33.1631 100.276 33.1631C99.4295 33.1631 98.9714 33.6917 98.9714 34.89V38.0619H97.5264V32.1763H98.9714V32.2468C98.9714 32.7754 98.7247 33.4098 98.5837 33.9032L98.8304 33.9737C98.9714 33.4803 99.0771 32.7402 99.4296 32.3877C99.7467 32.0706 100.099 32.0001 100.698 32.0001C101.227 32.0001 101.685 32.1058 102.002 32.3525C102.39 32.6697 102.249 33.4098 102.179 33.9384L102.425 33.9737C102.496 33.4803 102.637 32.8459 103.06 32.5287C103.412 32.2115 103.87 31.9648 104.47 31.9648Z" fill="white"/>
<path d="M111.13 31.9648C113.175 31.9648 114.514 33.2688 114.514 35.0662C114.514 36.8989 113.175 38.2029 111.13 38.2029C109.086 38.2029 107.782 36.9694 107.782 35.0662C107.782 33.1631 109.086 31.9648 111.13 31.9648ZM111.13 36.8284C112.434 36.8284 112.963 36.053 112.963 35.0662C112.963 34.1147 112.434 33.3393 111.13 33.3393C109.826 33.3393 109.298 34.0794 109.298 35.0662C109.298 36.053 109.826 36.8284 111.13 36.8284Z" fill="white"/>
<path d="M118.39 31.9648C120.328 31.9648 121.385 33.1631 121.491 34.2556H119.94C119.905 34.1499 119.482 33.3041 118.354 33.3041C117.297 33.3041 116.627 33.9737 116.627 35.031C116.627 36.0883 117.297 36.8284 118.39 36.8636C119.517 36.8636 119.94 36.053 119.975 35.9121H121.526C121.35 37.0751 120.328 38.2381 118.46 38.2381C116.522 38.2381 115.218 37.0046 115.218 35.0662C115.218 33.1279 116.486 31.9648 118.39 31.9648Z" fill="white"/>
<path d="M126.99 31.9648V33.3041C125.545 33.3041 123.995 33.8327 123.995 35.4539V38.0266H122.55V32.141H123.995V32.3173C123.995 32.7754 123.748 33.3041 123.572 33.727L123.818 33.8327C123.995 33.4098 124.171 32.8459 124.558 32.564C125.193 32.0706 125.862 31.9648 126.99 31.9648Z" fill="white"/>
<path d="M130.548 38.2381C128.786 38.2381 127.552 36.8284 127.552 35.0662C127.552 33.3041 128.786 31.9648 130.548 31.9648C131.323 31.9648 131.958 32.2468 132.381 32.7049C132.627 32.9516 132.663 33.445 132.803 33.7975L133.05 33.727C132.944 33.3746 132.733 32.9869 132.733 32.6344V32.1763H134.178V38.0619H132.733V37.5685C132.733 37.2161 132.944 36.7931 133.05 36.476L132.803 36.4055C132.698 36.7226 132.662 37.2161 132.416 37.498C131.958 37.9209 131.359 38.2381 130.548 38.2381ZM130.654 36.8636C131.605 36.8636 132.275 36.0178 132.31 35.031C132.31 34.0089 131.746 33.2688 130.654 33.2688C129.667 33.2688 129.032 34.0089 129.032 35.031C128.997 36.053 129.667 36.8636 130.654 36.8636Z" fill="white"/>
<path d="M136.293 33.411H135.13V32.1422H136.293V29.9219H137.738V32.1422H139.254V33.411H137.738V36.0542C137.738 36.5476 137.95 36.6886 138.513 36.6886H139.218V38.0278H137.809C136.716 38.0278 136.328 37.0058 136.328 36.0542V33.411H136.293Z" fill="white"/>
<path d="M140.276 29.7803H141.862V31.2605H140.276V29.7803ZM140.346 32.1416H141.756V38.0272H140.346V32.1416Z" fill="white"/>
<path d="M145.915 33.798C146.091 33.6218 146.443 33.5513 146.69 33.4456L146.584 33.1989C146.338 33.3046 146.056 33.4808 145.774 33.4808H142.919V32.1416H148.346V33.4808L145.316 36.3708C145.104 36.547 144.787 36.6175 144.505 36.7232L144.611 36.9699C144.857 36.8642 145.175 36.688 145.421 36.688H148.452V38.0272H142.813V36.7937L145.915 33.798Z" fill="white"/>
<path d="M149.615 29.7803H151.201V31.2605H149.615V29.7803ZM149.685 32.1416H151.095V38.0272H149.685V32.1416Z" fill="white"/>
<path d="M156.277 31.9648C157.475 31.9648 158.427 32.6344 158.427 34.0089V38.0619H156.982V35.0662C156.982 33.9384 156.559 33.445 155.713 33.445C154.761 33.445 153.951 33.9384 153.951 35.0662V38.0619H152.506V32.1763H153.951V32.282C153.951 32.7402 153.704 33.3041 153.528 33.7622L153.775 33.868C153.951 33.4098 154.127 32.7754 154.479 32.4935C155.008 32.0706 155.537 31.9648 156.277 31.9648Z" fill="white"/>
<path d="M162.585 38.2381C160.788 38.2381 159.554 36.8284 159.554 35.0662C159.554 33.3041 160.823 31.9648 162.585 31.9648C163.396 31.9648 164.066 32.2468 164.524 32.7049C164.77 32.9516 164.841 33.445 164.982 33.7622L165.229 33.6917C165.088 33.3393 164.876 32.9516 164.876 32.5992L164.841 32.141H166.286V38.2029C166.286 39.824 165.37 40.9871 162.903 40.9871C160.894 40.9871 159.836 40.0355 159.731 38.5905H161.246C161.387 39.4364 162.021 39.6478 162.832 39.6478C164.207 39.6478 164.841 39.0487 164.841 38.0266C164.841 37.8504 164.841 37.6742 164.841 37.5332C164.876 37.1808 165.088 36.7931 165.193 36.476L164.947 36.3702C164.841 36.6874 164.77 37.1808 164.524 37.4275C164.066 37.9209 163.431 38.2381 162.585 38.2381ZM162.762 36.8284C163.854 36.8284 164.488 36.1588 164.559 35.2424V34.9605C164.488 34.0442 163.889 33.3746 162.762 33.3746C161.599 33.3746 160.964 34.1147 160.964 35.1367C160.999 36.0883 161.599 36.8284 162.762 36.8284Z" fill="white"/>
<path d="M171.536 33.411H170.373V32.1422H171.536V29.9219H172.981V32.1422H174.496V33.411H172.981V36.0542C172.981 36.5476 173.192 36.6886 173.756 36.6886H174.461V38.0278H173.051C171.959 38.0278 171.571 37.0058 171.571 36.0542V33.411H171.536Z" fill="white"/>
<path d="M179.396 31.965C180.594 31.965 181.545 32.6346 181.545 34.0091V38.0621H180.1V35.0664C180.1 33.9386 179.678 33.4452 178.832 33.4452C177.88 33.4452 177.07 33.9386 177.07 35.0664V38.0621H175.625V29.498H177.07V32.3174C177.07 32.7756 176.823 33.3395 176.682 33.7624L176.929 33.8681C177.105 33.4452 177.246 32.8108 177.598 32.5289C178.056 32.0707 178.62 31.965 179.396 31.965Z" fill="white"/>
<path d="M182.497 35.0662C182.497 33.3041 183.907 31.9648 185.88 31.9648C187.924 31.9648 189.193 33.4098 189.193 35.031C189.193 35.1367 189.193 35.4187 189.193 35.5244H184.224C184.224 36.1588 184.823 36.9694 186.021 36.9694C186.796 36.9694 187.29 36.6169 187.396 36.335H189.052C188.876 36.9341 187.995 38.2029 186.162 38.2029C183.801 38.2381 182.497 36.7931 182.497 35.0662ZM187.537 34.5728C187.537 33.7622 186.937 33.1279 185.951 33.1279C184.964 33.1279 184.259 33.8327 184.259 34.5728H187.537Z" fill="white"/>
<path d="M195.361 29.7451H197.123L200.295 38.0273H198.674L197.581 35.1373H194.938L193.916 38.0273H192.295L195.361 29.7451ZM196.418 31.7892C196.312 31.5425 196.383 31.1901 196.383 30.9434H196.101C196.101 31.1901 196.171 31.5425 196.066 31.7892L195.114 33.9743H197.405L196.418 31.7892Z" fill="white"/>
<path d="M205.44 31.9648V33.3041C203.995 33.3041 202.444 33.8327 202.444 35.4539V38.0266H201V32.141H202.444V32.3173C202.444 32.7754 202.198 33.3041 202.022 33.727L202.268 33.8327C202.444 33.4098 202.621 32.8459 203.008 32.564C203.607 32.0706 204.277 31.9648 205.44 31.9648Z" fill="white"/>
<path d="M207.414 33.411H206.251V32.1422H207.414V29.9219H208.859V32.1422H210.374V33.411H208.859V36.0542C208.859 36.5476 209.07 36.6886 209.634 36.6886H210.339V38.0278H208.929C207.837 38.0278 207.449 37.0058 207.449 36.0542V33.411H207.414Z" fill="white"/>
<path d="M214.146 38.2391C212.102 38.2391 211.15 37.0408 211.15 36.054H212.595C212.595 36.3712 213.159 36.8998 214.287 36.8998C215.168 36.8998 215.485 36.5826 215.485 36.2655C215.485 35.1024 211.221 35.8778 211.221 33.7632C211.221 32.8469 212.102 32.001 213.969 32.001C216.049 32.001 216.859 33.0231 216.859 33.8689H215.414C215.414 33.4813 214.851 33.1993 213.899 33.1993C213.265 33.1993 212.701 33.3755 212.701 33.7632C212.701 34.609 217 33.7984 217 36.195C216.965 37.2523 216.049 38.2391 214.146 38.2391Z" fill="white"/>
<path d="M86.0366 25.0939H81.4902V0.881836H88.3979L94.9531 17.5166C95.4112 18.7149 95.3408 20.3713 95.3408 21.6401H96.1161C96.1161 20.3713 96.0104 18.7501 96.4685 17.5166L103.024 0.881836H109.896V25.0939H105.35V7.96571C105.35 6.69696 105.914 5.11102 106.125 3.80702L105.35 3.66605C105.103 4.9348 105.068 6.62647 104.645 7.85998L98.3717 25.0939H93.0147L86.7062 7.85998C86.2833 6.66172 86.248 4.97004 86.0013 3.70129L85.226 3.80702C85.4374 5.07577 86.0013 6.69696 86.0013 7.96571V25.0939H86.0366Z" fill="white"/>
<path d="M120.752 25.587C117.368 25.587 114.055 23.5429 114.055 19.6309V7.75391H118.32V16.8819C118.32 20.4767 119.941 21.8159 122.267 21.8159C124.805 21.8159 126.884 20.3005 126.884 16.8819V7.75391H131.113V25.0583H126.884V24.3534C126.919 23.4019 127.554 22.3446 127.835 21.4283L127.095 21.1463C126.778 22.0626 126.531 23.2962 125.862 23.9658C124.452 25.4107 123.148 25.587 120.752 25.587Z" fill="white"/>
<path d="M134.99 0H139.255V19.278C139.255 20.6877 139.854 21.1459 141.44 21.1459H143.59V25.0931H141.017C137.07 25.0931 134.99 23.6129 134.99 20.8992V0Z" fill="white"/>
<path d="M147.325 11.4892H143.871V7.78863H147.325V1.2334H151.554V7.78863H156.065V11.4892H151.554V19.2779C151.554 20.7229 152.224 21.1458 153.845 21.1458H155.889V25.093H151.695C148.453 25.093 147.325 22.0621 147.325 19.2779V11.4892Z" fill="white"/>
<path d="M158.567 0.845703H163.184V5.18061H158.567V0.845703ZM158.814 7.78861H163.008V25.093H158.814V7.78861Z" fill="white"/>
<path d="M173.545 0.775391H178.726L188.065 25.0227H183.307L180.065 16.5643H172.347L169.386 25.0227H164.593L173.545 0.775391ZM176.717 6.76673C176.4 6.02662 176.576 5.03982 176.576 4.26447H175.765C175.765 5.03982 175.942 6.02662 175.624 6.76673L172.77 13.2162H179.536L176.717 6.76673Z" fill="white"/>
<path d="M202.762 7.25977V11.207C198.463 11.207 194.022 12.7225 194.022 17.5508V25.0929H189.793V7.78842H194.022V8.31706C194.022 9.62106 193.282 11.2423 192.789 12.4405L193.529 12.7577C194.057 11.5595 194.586 9.83252 195.678 9.02193C197.476 7.57696 199.379 7.25977 202.762 7.25977Z" fill="white"/>
<path d="M208.224 11.4892H204.771V7.78863H208.224V1.2334H212.454V7.78863H216.965V11.4892H212.454V19.2779C212.454 20.7229 213.123 21.1458 214.744 21.1458H216.789V25.093H212.595C209.352 25.093 208.224 22.0621 208.224 19.2779V11.4892Z" fill="white"/>
<path d="M23.8332 25.1989C24.2561 25.6218 24.2561 26.2914 23.8332 26.6791L12.8021 37.7102C12.3792 38.1331 11.7095 38.1331 11.3219 37.7102L0.290756 26.6791C-0.0969187 26.2562 -0.0969187 25.5866 0.290756 25.1989L11.3219 14.1678C11.7448 13.7449 12.4144 13.7449 12.8021 14.1678L23.8332 25.1989Z" fill="white"/>
<path d="M73.9135 26.6787L62.8824 37.7098C62.4595 38.1327 61.7898 38.1327 61.4022 37.7098L50.3711 26.6787C49.9834 26.291 49.9481 25.6566 50.3358 25.2337C50.3358 25.2337 50.3358 25.1985 50.3711 25.1985C50.3711 25.1985 50.3358 25.1985 50.3358 25.2337C49.9129 25.5862 49.3138 25.5862 48.8909 25.1985C49.3138 25.6214 49.3138 26.2558 48.8909 26.6787L37.8597 37.7098C37.4368 38.1327 36.7672 38.1327 36.3795 37.7098L25.3484 26.6787C24.9255 26.2558 24.9255 25.5862 25.3484 25.1985L36.3795 14.1674C36.8025 13.7445 37.4368 13.7445 37.8597 14.1674C37.4368 13.7445 37.4368 13.0748 37.8597 12.6872L48.8909 1.65606C49.3138 1.23314 49.9834 1.23314 50.3711 1.65606L61.4022 12.6872C61.8251 13.1101 61.8251 13.7797 61.4022 14.1674C61.8251 13.7445 62.4595 13.7445 62.8824 14.1674L73.9135 25.1985C74.3012 25.6214 74.3012 26.291 73.9135 26.6787Z" fill="white"/>
</g>
<defs>
<clipPath id="clip0_204_2635">
<rect width="217" height="41" fill="white"/>
</clipPath>
</defs>
</svg>
