<svg width="108" height="108" viewBox="0 0 108 108" fill="none" xmlns="http://www.w3.org/2000/svg">
<g clip-path="url(#clip0_2_260)">
<path d="M44.8896 48.7941C44.5247 62.4086 38.8614 70.4565 24.802 68.9795V30.1801C39.0076 28.616 44.9618 36.0307 44.8896 48.7941ZM108 0V108H0V0H108ZM54.0245 48.5975C54.0245 32.9305 45.7734 22.2237 29.2224 22.2237H15.8144V76.985H28.7312C39.7326 76.985 54.0247 70.4038 54.0247 48.5975H54.0245ZM92.2345 50.5621C92.2345 38.6275 84.4748 35.9262 77.5497 35.9262C71.9018 35.9262 66.3029 37.5962 62.1281 39.1677C61.2316 39.5793 61.9833 39.3611 61.9808 44.8158V76.8376H70.9687V44.7177C78.7839 42.4944 83.3482 44.3226 83.2469 51.2006V76.8376H92.2345V50.5621Z" fill="white"/>
</g>
<defs>
<clipPath id="clip0_2_260">
<rect width="108" height="108" fill="white"/>
</clipPath>
</defs>
</svg>
