<svg width="108" height="108" viewBox="0 0 108 108" fill="none" xmlns="http://www.w3.org/2000/svg">
<g clip-path="url(#clip0_2_254)">
<path fill-rule="evenodd" clip-rule="evenodd" d="M108 108H0V0H108V108ZM85.7271 45.7764V37.4001C84.3476 36.7858 76.4478 34.526 70.2067 36.9075C61.2166 40.3378 61.5395 50.6716 64.951 54.7273C69.3712 59.9822 80.3668 61.9414 78.5675 67.0992C77.6358 69.7701 73.286 70.235 69.4512 69.3383C65.88 68.5034 62.775 66.3882 62.775 66.3882V75.257C62.775 75.257 65.8441 76.9681 69.6111 77.3753C74.4401 77.8969 80.4931 76.9118 83.5256 74.2165C88.9234 69.4183 89.7524 58.7891 79.523 53.8534C71.0106 49.7464 71.1507 48.5743 71.2104 46.4676C71.2905 43.6461 77.2145 41.9093 85.7271 45.7764ZM39.8229 22.2697C46.9055 22.5161 57.3143 25.7804 57.3143 39.6995C57.3143 53.6186 44.5791 58.1861 32.9588 57.1909V76.8994H24.3021V22.4543C24.3021 22.4543 32.74 22.0234 39.8229 22.2697ZM42.0709 48.5684C45.8036 47.2063 48.2298 44.2783 48.2298 39.7301C48.2298 34.9078 45.7608 31.6423 41.9846 30.7199C37.8953 29.7207 32.9588 30.3096 32.9588 30.3096V49.3033C32.9588 49.3033 39.7921 49.3999 42.0709 48.5684Z" fill="white"/>
</g>
<defs>
<clipPath id="clip0_2_254">
<rect width="108" height="108" fill="white"/>
</clipPath>
</defs>
</svg>
