<svg width="108" height="108" viewBox="0 0 108 108" fill="none" xmlns="http://www.w3.org/2000/svg">
<g clip-path="url(#clip0_2_258)">
<path d="M82.0939 45.2126C83.0807 47.0922 83.4117 49.0972 83.3821 51.1711H69.1255C69.9914 45.592 72.2851 42.1894 76.8363 42.2917C79.4834 42.2917 81.2358 43.2667 82.0939 45.2126ZM29.6363 52.8067H41.7867L35.4778 28.9729C34.6855 34.3638 31.9072 43.5487 29.6363 52.8067ZM108 0V108H0V0H108ZM57.884 77.1078L41.1809 20.7946H29.6363C29.6363 22.0434 29.5561 23.4052 29.4026 23.9492C29.2456 24.4968 29.1689 25.0007 29.1689 25.468L14.4146 77.1078H23.1441L27.2995 61.2187H43.6563L48.2302 77.1078H57.884ZM92.0247 51.6383C92.0247 47.8997 90.9328 44.1612 88.7534 40.4226C86.5702 36.6839 82.678 34.8146 77.07 34.8146C71.6156 34.8146 67.373 36.9577 64.3355 41.2404C58.6054 48.7968 58.0078 63.0703 64.1018 71.3829C66.9824 75.6692 71.7725 77.8089 78.4721 77.8089C82.141 77.7997 85.6394 77.3571 88.7532 75.9394C89.1167 75.5652 89.2105 75.3876 89.2206 74.771V68.4621C89.2101 68.0246 88.9703 68.0065 88.5197 67.9951C83.9603 70.2232 77.3331 70.1439 73.9802 68.2106C70.8605 66.412 69.0263 62.6524 69.1255 58.1812H82.4443C84.7811 58.1812 86.6504 58.1445 88.0523 58.0643C89.4544 57.9876 90.4654 57.8707 91.0898 57.7138C91.2433 57.7138 91.3602 57.6771 91.4404 57.5969L91.7909 57.2463C91.7909 56.7791 91.8274 56.0415 91.9078 55.0264C91.9844 54.0152 92.0247 52.8871 92.0247 51.6383Z" fill="white"/>
</g>
<defs>
<clipPath id="clip0_2_258">
<rect width="108" height="108" fill="white"/>
</clipPath>
</defs>
</svg>
