<svg width="108" height="108" viewBox="0 0 108 108" fill="none" xmlns="http://www.w3.org/2000/svg">
<g clip-path="url(#clip0_2_262)">
<path fill-rule="evenodd" clip-rule="evenodd" d="M0 0H108V108H0V0ZM89.0882 50.7444V76.8293H80.2588V51.6354C80.5376 42.6435 72.2883 42.6144 67.8641 46.5313V76.8291H59.0338V22.796H67.8641V39.4031C74.3517 34.3569 89.4042 33.4433 89.0882 50.7446V50.7444ZM52.067 23.3033V31.7969C39.5402 26.5861 27.4632 32.4057 27.44 49.6098C27.7868 64.2794 35.5757 72.7922 51.581 68.206L51.5814 76.1326C32.5055 81.7176 17.9067 70.8273 18.2048 49.8534C18.3383 29.1697 32.7801 17.7888 52.067 23.3033Z" fill="white"/>
</g>
<defs>
<clipPath id="clip0_2_262">
<rect width="108" height="108" fill="white"/>
</clipPath>
</defs>
</svg>
