<svg width="179" height="32" viewBox="0 0 179 32" fill="none" xmlns="http://www.w3.org/2000/svg">
<g clip-path="url(#clip0_91_2907)">
<path d="M19.0958 20.1758C19.417 20.5156 19.417 21.089 19.0958 21.4288L10.2607 30.7736C9.93945 31.1134 9.39729 31.1134 9.07601 30.7736L0.240956 21.4288C-0.0803186 21.089 -0.0803186 20.5156 0.240956 20.1758L9.07601 10.831C9.39729 10.4912 9.93945 10.4912 10.2607 10.831L19.0958 20.1758Z" fill="white"/>
<path d="M59.1746 21.4505L50.3395 30.7953C50.0183 31.1351 49.4761 31.1351 49.1548 30.7953L40.3198 21.4505C40.0185 21.1107 39.9985 20.5798 40.2796 20.2399C40.2796 20.2399 40.2796 20.2187 40.2997 20.2187L40.2796 20.2399C39.9382 20.5372 39.4563 20.5372 39.1351 20.1974C39.4563 20.5372 39.4563 21.1107 39.1351 21.4505L30.3 30.7953C29.9788 31.1351 29.4366 31.1351 29.1153 30.7953L20.2802 21.4505C19.959 21.1107 19.959 20.5372 20.2802 20.1974L29.1153 10.8527C29.4366 10.5129 29.9788 10.5129 30.3 10.8527C29.9788 10.5129 29.9788 9.93945 30.3 9.59964L39.1351 0.254858C39.4563 -0.0849527 39.9985 -0.0849527 40.3198 0.254858L49.1548 9.59964C49.4761 9.93945 49.4761 10.5129 49.1548 10.8527C49.4761 10.5129 50.0183 10.5129 50.3395 10.8527L59.1746 20.1974C59.516 20.5372 59.516 21.1107 59.1746 21.4505Z" fill="white"/>
<path d="M76.4257 25.3215H72.874V6.33691H78.2985L83.4251 19.3838C83.7768 20.3322 83.723 21.6084 83.723 22.6079H84.3194C84.3194 21.6057 84.2359 20.3295 84.5883 19.3838L89.7149 6.33691H95.1125V25.3215H91.5601V11.8878C91.5601 10.8829 91.9931 9.63625 92.1565 8.63138L91.5601 8.52391C91.3697 9.52878 91.3429 10.856 91.0231 11.8044L86.1087 25.3215H81.904L76.9684 11.8152C76.6436 10.8668 76.6168 9.53954 76.4314 8.56154L75.8293 8.64213C75.9934 9.64701 76.4257 10.9205 76.4257 11.8984V25.3215Z" fill="white"/>
<path d="M103.613 25.7302C100.955 25.7302 98.3787 24.1181 98.3787 21.0633V11.7617H101.713V18.9219C101.713 21.743 102.99 22.7989 104.806 22.7989C106.785 22.7989 108.414 21.6086 108.414 18.9219V11.7617H111.721V25.3217H108.414V24.7844C108.441 24.0509 108.93 23.2099 109.172 22.5033L108.602 22.2884C108.36 22.9923 108.169 23.9703 107.627 24.4835C106.514 25.5662 105.485 25.7302 103.613 25.7302Z" fill="white"/>
<path d="M114.769 5.66016H118.103V20.7651C118.103 21.8773 118.565 22.232 119.815 22.232H121.504V25.3218H119.497C116.407 25.3218 114.779 24.1557 114.779 22.0413L114.769 5.66016Z" fill="white"/>
<path d="M124.428 14.6638H121.718V11.7621H124.428V6.63574H127.739V11.7621H131.264V14.6638H127.739V20.7653C127.739 21.9045 128.254 22.2323 129.528 22.2323H131.14V25.3221H127.846C125.296 25.3221 124.428 22.9363 124.428 20.7546V14.6638Z" fill="white"/>
<path d="M133.243 6.33691H136.852V9.72759H133.243V6.33691ZM133.434 11.7615H136.715V25.3215H133.434V11.7615Z" fill="white"/>
<path d="M144.999 6.2832H149.067L156.391 25.2946H152.67L150.12 18.6772H144.073L141.741 25.2946H138.003L144.999 6.2832ZM147.469 10.9769C147.224 10.4074 147.358 9.63357 147.358 9.0237H146.735C146.735 9.62013 146.872 10.4074 146.627 10.9769L144.403 16.02H149.693L147.469 10.9769Z" fill="white"/>
<path d="M167.89 11.3555V14.4479C164.526 14.4479 161.028 15.6409 161.028 19.4103V25.3212H157.721V11.7612H161.028V12.1669C161.028 13.1986 160.459 14.4479 160.053 15.391L160.622 15.6355C161.028 14.6844 161.463 13.3303 162.304 12.707C163.742 11.6 165.233 11.3555 167.89 11.3555Z" fill="white"/>
<path d="M172.174 14.6638H169.463V11.7621H172.174V6.63574H175.484V11.7621H179.001V14.6638H175.484V20.7653C175.484 21.9045 175.997 22.2323 177.273 22.2323H178.872V25.3221H175.591C173.041 25.3221 172.174 22.9363 172.174 20.7546V14.6638Z" fill="white"/>
</g>
<defs>
<clipPath id="clip0_91_2907">
<rect width="179" height="31.1304" fill="white"/>
</clipPath>
</defs>
</svg>
