<svg width="108" height="108" viewBox="0 0 108 108" fill="none" xmlns="http://www.w3.org/2000/svg">
<path fill-rule="evenodd" clip-rule="evenodd" d="M36.2916 22.7829H47.5417L63.7192 76.9814H53.9473L49.9234 61.5431H34.1567L30.0506 76.9816H21.4281L36.2918 25.3287V22.7829H36.2916ZM47.706 53.5777L42.1219 30.6661L36.3736 53.5773H47.706V53.5777ZM80.4716 36.7027H71.6027V76.9816H80.4716V36.7031V36.7027ZM75.9227 21.0539C73.0496 21.0539 70.7204 23.3563 70.7204 26.1965C70.7204 29.0368 73.0496 31.3394 75.9227 31.3394C78.7959 31.3394 81.1253 29.037 81.1253 26.1968C81.1253 23.3565 78.7961 21.0539 75.9227 21.0539ZM108 108H0V0H108V108Z" fill="white"/>
</svg>
