<svg width="24" height="24" viewBox="0 0 24 24" fill="none" xmlns="http://www.w3.org/2000/svg">
<rect width="24" height="24" rx="12" fill="#CACED1"/>
<g clip-path="url(#clip0_267_2469)">
<path d="M16.3859 9.50797H15.0291C14.871 9.50797 14.7206 9.44013 14.6159 9.32205L14.0655 8.70029C13.9836 8.60749 13.8655 8.55469 13.742 8.55469C13.6185 8.55469 13.5004 8.60781 13.4185 8.70029L12.9465 9.23373C12.7919 9.40813 12.5702 9.50829 12.3372 9.50829H4.91034C4.69882 10.1112 4.5609 10.748 4.50586 11.4084H11.5171C11.6403 11.4084 11.7583 11.3582 11.8435 11.2692L12.4963 10.588C12.5779 10.5028 12.6905 10.4548 12.8083 10.4548H12.8351C12.959 10.4548 13.0767 10.508 13.1587 10.6008L13.7087 11.2225C13.8134 11.3409 13.9638 11.4084 14.1219 11.4084H19.8447C19.7897 10.7476 19.6518 10.1108 19.4403 9.50829H16.3855L16.3859 9.50797Z" fill="black"/>
<path d="M8.74829 15.4042C8.87149 15.4042 8.98957 15.354 9.07469 15.265L9.72749 14.5837C9.80909 14.4986 9.92173 14.4506 10.0395 14.4506H10.0664C10.1902 14.4506 10.308 14.5037 10.3899 14.5962L10.94 15.218C11.0446 15.3364 11.195 15.4039 11.3531 15.4039H19.1086C19.3992 14.8036 19.612 14.1594 19.7387 13.4845H12.2945C12.1364 13.4845 11.986 13.4167 11.8814 13.2986L11.3313 12.6769C11.2494 12.5841 11.1313 12.5312 11.0078 12.5312C10.8843 12.5312 10.7662 12.5844 10.6843 12.6769L10.2123 13.2103C10.0577 13.3847 9.83597 13.4849 9.60269 13.4849H4.61133C4.73805 14.1597 4.95117 14.8039 5.24141 15.4042H8.74829Z" fill="black"/>
<path d="M14.2516 7.43198C14.3748 7.43198 14.4928 7.38174 14.578 7.29278L15.2308 6.6115C15.3124 6.52638 15.425 6.47838 15.5428 6.47838H15.5696C15.6935 6.47838 15.8112 6.5315 15.8932 6.6243L16.4432 7.24606C16.5479 7.36446 16.6983 7.43198 16.8564 7.43198H18.3312C16.9268 5.5651 14.6928 4.35742 12.1764 4.35742C9.65988 4.35742 7.42596 5.5651 6.02148 7.43198H14.2516Z" fill="black"/>
<path d="M11.289 17.3068H9.27203C9.11395 17.3068 8.96355 17.239 8.85891 17.1209L8.30883 16.4991C8.22691 16.4063 8.10883 16.3535 7.98531 16.3535C7.86179 16.3535 7.74371 16.4066 7.66179 16.4991L7.18979 17.0326C7.03523 17.207 6.81347 17.3071 6.58019 17.3071H6.54883C7.95395 18.8127 9.95491 19.7551 12.1767 19.7551C14.3984 19.7551 16.3991 18.8127 17.8045 17.3071H11.289V17.3068Z" fill="black"/>
</g>
<defs>
<clipPath id="clip0_267_2469">
<rect width="16" height="16" fill="white" transform="translate(4 4)"/>
</clipPath>
</defs>
</svg>
