<svg width="24" height="24" viewBox="0 0 24 24" fill="none" xmlns="http://www.w3.org/2000/svg">
<rect width="24" height="24" rx="12" fill="#CACED1"/>
<g clip-path="url(#clip0_267_2467)">
<path d="M15.0827 13.2802L16.894 15.0908L11.992 19.9928L7.09067 15.0915L8.902 13.2802L11.9927 16.3868L15.0827 13.2802ZM18.174 10.1895L20 12.0002L18.19 13.8108L16.3787 12.0002L18.174 10.1895ZM11.9927 10.1895L13.8033 11.9842L11.992 13.7955L10.1813 12.0002L11.992 10.1902L11.9927 10.1895ZM5.81067 10.1895L7.60667 12.0002L5.812 13.7948L4 12.0002L5.81067 10.1895ZM11.9933 4.00684L16.8947 8.8935L15.0833 10.7035L11.9927 7.61284L8.90267 10.7195L7.09133 8.90884L11.9927 4.0075L11.9933 4.00684Z" fill="black"/>
</g>
<defs>
<clipPath id="clip0_267_2467">
<rect width="16" height="16" fill="white" transform="translate(4 4)"/>
</clipPath>
</defs>
</svg>
