<svg width="24" height="24" viewBox="0 0 24 24" fill="none" xmlns="http://www.w3.org/2000/svg">
<rect width="24" height="24" rx="12" fill="#CACED1"/>
<g clip-path="url(#clip0_267_2466)">
<path d="M11.9979 3L11.8887 3.38729V14.6256L11.9979 14.7393L16.9964 11.6557L11.9979 3Z" fill="#343434"/>
<path d="M11.9985 3L7 11.6557L11.9985 14.7393V9.28462V3Z" fill="#8C8C8C"/>
<path d="M11.999 15.7275L11.9375 15.8058V19.8091L11.999 19.9967L17.0005 12.6455L11.999 15.7275Z" fill="#3C3C3B"/>
<path d="M11.9985 19.9957V15.7265L7 12.6445L11.9985 19.9957Z" fill="#8C8C8C"/>
<path d="M11.998 14.7388L16.9965 11.6553L11.998 9.28418V14.7388Z" fill="#141414"/>
<path d="M7 11.6553L11.9984 14.7388V9.28418L7 11.6553Z" fill="#393939"/>
</g>
<defs>
<clipPath id="clip0_267_2466">
<rect width="10" height="17" fill="white" transform="translate(7 3)"/>
</clipPath>
</defs>
</svg>
