<svg width="24" height="24" viewBox="0 0 24 24" fill="none" xmlns="http://www.w3.org/2000/svg">
<rect width="24" height="24" rx="12" fill="#CACED1"/>
<path d="M17.7125 18.5C16.1 18.5 14.528 18.1405 12.9965 17.4215C11.465 16.7025 10.1088 15.7525 8.92775 14.5715C7.74675 13.3905 6.79675 12.0343 6.07775 10.5027C5.35875 8.97125 4.9995 7.3995 5 5.7875C5 5.5625 5.075 5.375 5.225 5.225C5.375 5.075 5.5625 5 5.7875 5H8.825C9 5 9.15625 5.05625 9.29375 5.16875C9.43125 5.28125 9.5125 5.425 9.5375 5.6L10.025 8.225C10.05 8.4 10.0468 8.5595 10.0153 8.7035C9.98375 8.8475 9.912 8.9755 9.8 9.0875L8 10.925C8.525 11.825 9.18125 12.6688 9.96875 13.4563C10.7563 14.2438 11.625 14.925 12.575 15.5L14.3375 13.7375C14.45 13.625 14.597 13.5408 14.7785 13.4848C14.96 13.4288 15.138 13.413 15.3125 13.4375L17.9 13.9625C18.075 14 18.2187 14.0845 18.3312 14.216C18.4437 14.3475 18.5 14.5005 18.5 14.675V17.7125C18.5 17.9375 18.425 18.125 18.275 18.275C18.125 18.425 17.9375 18.5 17.7125 18.5Z" fill="black"/>
</svg>
