<svg width="24" height="24" viewBox="0 0 24 24" fill="none" xmlns="http://www.w3.org/2000/svg">
<rect width="24" height="24" rx="12" fill="#CACED1"/>
<g clip-path="url(#clip0_267_2468)">
<path d="M16.0833 8.89247C15.7917 8.73327 15.4167 8.73327 15.0833 8.89247L12.75 10.2059L11.1667 11.0417L8.875 12.3552C8.58333 12.5144 8.20833 12.5144 7.875 12.3552L6.08333 11.3203C5.79167 11.1611 5.58333 10.8427 5.58333 10.4845V8.49446C5.58333 8.17605 5.75 7.85765 6.08333 7.65864L7.875 6.66362C8.16667 6.50441 8.54167 6.50441 8.875 6.66362L10.6667 7.69844C10.9583 7.85765 11.1667 8.17605 11.1667 8.53426V9.8477L12.75 8.97207V7.61884C12.75 7.30043 12.5833 6.98202 12.25 6.78302L8.91667 4.91237C8.625 4.75317 8.25 4.75317 7.91667 4.91237L4.5 6.82282C4.16667 6.98202 4 7.30043 4 7.61884V11.3601C4 11.6785 4.16667 11.9969 4.5 12.196L7.875 14.0666C8.16667 14.2258 8.54167 14.2258 8.875 14.0666L11.1667 12.793L12.75 11.9173L15.0417 10.6437C15.3333 10.4845 15.7083 10.4845 16.0417 10.6437L17.8333 11.6387C18.125 11.7979 18.3333 12.1164 18.3333 12.4746V14.4646C18.3333 14.783 18.1667 15.1014 17.8333 15.3004L16.0833 16.2955C15.7917 16.4547 15.4167 16.4547 15.0833 16.2955L13.2917 15.3004C13 15.1412 12.7917 14.8228 12.7917 14.4646V13.191L11.2083 14.0666V15.38C11.2083 15.6984 11.375 16.0168 11.7083 16.2159L15.0833 18.0865C15.375 18.2457 15.75 18.2457 16.0833 18.0865L19.4583 16.2159C19.75 16.0567 19.9583 15.7382 19.9583 15.38V11.5989C19.9583 11.2805 19.7917 10.9621 19.4583 10.7631L16.0833 8.89247Z" fill="black"/>
</g>
<defs>
<clipPath id="clip0_267_2468">
<rect width="16" height="13.3333" fill="white" transform="translate(4 4.83301)"/>
</clipPath>
</defs>
</svg>
