<svg width="49" height="24" viewBox="0 0 49 24" fill="none" xmlns="http://www.w3.org/2000/svg">
<rect x="2" width="24" height="24" rx="12" fill="#CACED1"/>
<path fill-rule="evenodd" clip-rule="evenodd" d="M9.22882 16.7582C10.1745 18.3964 11.8685 19.3743 13.7599 19.3743C15.6514 19.3743 17.345 18.3964 18.2911 16.7582C19.2368 15.1202 19.2368 13.1645 18.2911 11.5263L14.3058 4.62377C14.0632 4.20353 13.4567 4.20354 13.214 4.62377L9.22882 11.5263C8.2831 13.1641 8.2831 15.1199 9.22882 16.7582ZM12.6373 7.90758L13.487 6.43586C13.6083 6.22574 13.9116 6.22574 14.0329 6.43586L17.3017 12.0977C17.9023 13.1378 18.015 14.3417 17.6399 15.4433C17.6008 15.2636 17.5462 15.0797 17.4726 14.8939C17.0211 13.7545 16.0002 12.8752 14.4377 12.2803C13.3634 11.8728 12.6777 11.2735 12.399 10.4989C12.0401 9.5005 12.415 8.41179 12.6373 7.90758ZM11.1884 10.4171L10.2182 12.0977C9.47887 13.3782 9.47887 14.9068 10.2182 16.1873C10.9575 17.4679 12.2813 18.232 13.7599 18.232C14.742 18.232 15.6561 17.8946 16.3758 17.2928C16.4697 17.0565 16.7603 16.1914 16.4012 15.2999C16.0696 14.4766 15.2714 13.8194 14.0287 13.346C12.624 12.8132 11.7114 11.9813 11.3167 10.8743C11.2624 10.7219 11.2202 10.5691 11.1884 10.4171Z" fill="#1D2947"/>
</svg>
