<svg width="20" height="20" viewBox="0 0 20 20" fill="none" xmlns="http://www.w3.org/2000/svg">
<path d="M0 3.61111C0 2.65338 0.380455 1.73488 1.05767 1.05767C1.73488 0.380455 2.65338 0 3.61111 0H16.3889C17.3466 0 18.2651 0.380455 18.9423 1.05767C19.6195 1.73488 20 2.65338 20 3.61111V16.3889C20 17.3466 19.6195 18.2651 18.9423 18.9423C18.2651 19.6195 17.3466 20 16.3889 20H3.61111C2.65338 20 1.73488 19.6195 1.05767 18.9423C0.380455 18.2651 0 17.3466 0 16.3889V3.61111ZM14.7222 9.16667H5.27778C5.05676 9.16667 4.8448 9.25447 4.68852 9.41075C4.53224 9.56703 4.44444 9.77899 4.44444 10C4.44444 10.221 4.53224 10.433 4.68852 10.5893C4.8448 10.7455 5.05676 10.8333 5.27778 10.8333H14.7222C14.9432 10.8333 15.1552 10.7455 15.3115 10.5893C15.4678 10.433 15.5556 10.221 15.5556 10C15.5556 9.77899 15.4678 9.56703 15.3115 9.41075C15.1552 9.25447 14.9432 9.16667 14.7222 9.16667Z" fill="black"/>
</svg>
