<svg width="20" height="20" viewBox="0 0 20 20" fill="none" xmlns="http://www.w3.org/2000/svg">
<path d="M2.85714 0C2.09938 0 1.37266 0.301019 0.836838 0.836838C0.301019 1.37266 0 2.09938 0 2.85714V17.1429C0 17.9006 0.301019 18.6273 0.836838 19.1632C1.37266 19.699 2.09938 20 2.85714 20H17.1429C17.9006 20 18.6273 19.699 19.1632 19.1632C19.699 18.6273 20 17.9006 20 17.1429V2.85714C20 2.09938 19.699 1.37266 19.1632 0.836838C18.6273 0.301019 17.9006 0 17.1429 0H2.85714ZM10.7143 5V9.28571H15C15.1894 9.28571 15.3711 9.36097 15.5051 9.49492C15.639 9.62888 15.7143 9.81056 15.7143 10C15.7143 10.1894 15.639 10.3711 15.5051 10.5051C15.3711 10.639 15.1894 10.7143 15 10.7143H10.7143V15C10.7143 15.1894 10.639 15.3711 10.5051 15.5051C10.3711 15.639 10.1894 15.7143 10 15.7143C9.81056 15.7143 9.62888 15.639 9.49492 15.5051C9.36097 15.3711 9.28571 15.1894 9.28571 15V10.7143H5C4.81056 10.7143 4.62888 10.639 4.49492 10.5051C4.36097 10.3711 4.28571 10.1894 4.28571 10C4.28571 9.81056 4.36097 9.62888 4.49492 9.49492C4.62888 9.36097 4.81056 9.28571 5 9.28571H9.28571V5C9.28571 4.81056 9.36097 4.62888 9.49492 4.49492C9.62888 4.36097 9.81056 4.28571 10 4.28571C10.1894 4.28571 10.3711 4.36097 10.5051 4.49492C10.639 4.62888 10.7143 4.81056 10.7143 5Z" fill="black"/>
</svg>
